<svg xmlns="http://www.w3.org/2000/svg" xmlns:xlink="http://www.w3.org/1999/xlink" width="415" zoomAndPan="magnify" viewBox="0 0 311.25 85.499998" height="114" preserveAspectRatio="xMidYMid meet" version="1.0"><defs><g/><clipPath id="c073c5fa13"><path d="M 36.042969 16.0625 L 76.753906 16.0625 L 76.753906 34.777344 L 36.042969 34.777344 Z M 36.042969 16.0625 " clip-rule="nonzero"/></clipPath><clipPath id="ad56633d96"><path d="M 58.164062 23.953125 C 57.941406 25.359375 58.03125 26.839844 58.496094 28.285156 C 60.074219 33.191406 65.332031 35.890625 70.242188 34.3125 C 75.148438 32.734375 77.847656 27.476562 76.265625 22.570312 C 74.6875 17.664062 69.429688 14.96875 64.523438 16.546875 C 61.585938 17.492188 59.441406 19.753906 58.53125 22.472656 C 54.761719 22.636719 50.808594 23.613281 47.707031 24.589844 C 46.359375 21.957031 43.269531 20.609375 40.363281 21.542969 C 37.136719 22.582031 35.363281 26.039062 36.398438 29.265625 C 37.4375 32.492188 40.894531 34.265625 44.121094 33.226562 C 47.191406 32.238281 48.945312 29.066406 48.214844 25.984375 C 51.109375 25.078125 54.734375 24.175781 58.164062 23.953125 Z M 58.164062 23.953125 " clip-rule="nonzero"/></clipPath><clipPath id="c9deaa5e0f"><path d="M 58.164062 23.953125 C 57.941406 25.359375 58.03125 26.839844 58.496094 28.285156 C 60.074219 33.191406 65.332031 35.890625 70.242188 34.3125 C 75.148438 32.734375 77.847656 27.476562 76.265625 22.570312 C 74.6875 17.664062 69.429688 14.96875 64.523438 16.546875 C 61.585938 17.492188 59.441406 19.753906 58.53125 22.472656 C 54.761719 22.636719 50.808594 23.613281 47.707031 24.589844 C 46.359375 21.957031 43.269531 20.609375 40.363281 21.542969 C 37.136719 22.582031 35.363281 26.039062 36.398438 29.265625 C 37.4375 32.492188 40.894531 34.265625 44.121094 33.226562 C 47.191406 32.238281 48.945312 29.066406 48.214844 25.984375 C 51.109375 25.078125 54.734375 24.175781 58.164062 23.953125 " clip-rule="nonzero"/></clipPath><clipPath id="b6fc948016"><path d="M 35.375 14.203125 L 34.984375 35.882812 L 77.832031 36.65625 L 78.222656 14.972656 Z M 35.375 14.203125 " clip-rule="nonzero"/></clipPath><radialGradient gradientTransform="matrix(0.99998, 0.0179908, -0.0179959, 0.999696, -11.968848, 44.694287)" gradientUnits="userSpaceOnUse" r="75.127275" cx="0" id="f29958a00e" cy="0" fx="0" fy="0"><stop stop-opacity="1" stop-color="rgb(88.438416%, 11.759949%, 58.039856%)" offset="0"/><stop stop-opacity="1" stop-color="rgb(88.052368%, 11.759949%, 58.039856%)" offset="0.00390625"/><stop stop-opacity="1" stop-color="rgb(87.8479%, 11.94458%, 58.039856%)" offset="0.0078125"/><stop stop-opacity="1" stop-color="rgb(87.661743%, 12.14447%, 58.039856%)" offset="0.0117188"/><stop stop-opacity="1" stop-color="rgb(87.295532%, 12.159729%, 58.039856%)" offset="0.015625"/><stop stop-opacity="1" stop-color="rgb(87.060547%, 12.159729%, 58.039856%)" offset="0.0195312"/><stop stop-opacity="1" stop-color="rgb(86.825562%, 12.159729%, 58.039856%)" offset="0.0234375"/><stop stop-opacity="1" stop-color="rgb(86.439514%, 12.159729%, 58.039856%)" offset="0.0273438"/><stop stop-opacity="1" stop-color="rgb(86.061096%, 12.159729%, 58.032227%)" offset="0.03125"/><stop stop-opacity="1" stop-color="rgb(85.876465%, 12.159729%, 57.836914%)" offset="0.0351562"/><stop stop-opacity="1" stop-color="rgb(85.682678%, 12.159729%, 57.649231%)" offset="0.0390625"/><stop stop-opacity="1" stop-color="rgb(85.301208%, 12.159729%, 57.649231%)" offset="0.0429688"/><stop stop-opacity="1" stop-color="rgb(85.105896%, 12.159729%, 57.649231%)" offset="0.046875"/><stop stop-opacity="1" stop-color="rgb(84.919739%, 12.159729%, 57.649231%)" offset="0.0507812"/><stop stop-opacity="1" stop-color="rgb(84.544373%, 12.159729%, 57.649231%)" offset="0.0546875"/><stop stop-opacity="1" stop-color="rgb(84.329224%, 12.159729%, 57.649231%)" offset="0.0585938"/><stop stop-opacity="1" stop-color="rgb(84.094238%, 12.179565%, 57.649231%)" offset="0.0625"/><stop stop-opacity="1" stop-color="rgb(83.688354%, 12.373352%, 57.649231%)" offset="0.0664062"/><stop stop-opacity="1" stop-color="rgb(83.319092%, 12.548828%, 57.649231%)" offset="0.0703125"/><stop stop-opacity="1" stop-color="rgb(83.132935%, 12.548828%, 57.649231%)" offset="0.0742188"/><stop stop-opacity="1" stop-color="rgb(82.936096%, 12.548828%, 57.649231%)" offset="0.078125"/><stop stop-opacity="1" stop-color="rgb(82.550049%, 12.548828%, 57.649231%)" offset="0.0820312"/><stop stop-opacity="1" stop-color="rgb(82.351685%, 12.548828%, 57.649231%)" offset="0.0859375"/><stop stop-opacity="1" stop-color="rgb(82.165527%, 12.548828%, 57.649231%)" offset="0.0898438"/><stop stop-opacity="1" stop-color="rgb(81.793213%, 12.548828%, 57.649231%)" offset="0.09375"/><stop stop-opacity="1" stop-color="rgb(81.585693%, 12.548828%, 57.649231%)" offset="0.0976562"/><stop stop-opacity="1" stop-color="rgb(81.350708%, 12.548828%, 57.649231%)" offset="0.101562"/><stop stop-opacity="1" stop-color="rgb(80.937195%, 12.548828%, 57.649231%)" offset="0.105469"/><stop stop-opacity="1" stop-color="rgb(80.566406%, 12.548828%, 57.649231%)" offset="0.109375"/><stop stop-opacity="1" stop-color="rgb(80.380249%, 12.548828%, 57.649231%)" offset="0.113281"/><stop stop-opacity="1" stop-color="rgb(80.180359%, 12.553406%, 57.649231%)" offset="0.117188"/><stop stop-opacity="1" stop-color="rgb(79.798889%, 12.748718%, 57.649231%)" offset="0.121094"/><stop stop-opacity="1" stop-color="rgb(79.60968%, 12.939453%, 57.649231%)" offset="0.125"/><stop stop-opacity="1" stop-color="rgb(79.423523%, 12.939453%, 57.649231%)" offset="0.128906"/><stop stop-opacity="1" stop-color="rgb(79.042053%, 12.939453%, 57.649231%)" offset="0.132812"/><stop stop-opacity="1" stop-color="rgb(78.656006%, 12.939453%, 57.649231%)" offset="0.136719"/><stop stop-opacity="1" stop-color="rgb(78.44696%, 12.939453%, 57.649231%)" offset="0.140625"/><stop stop-opacity="1" stop-color="rgb(78.211975%, 12.939453%, 57.649231%)" offset="0.144531"/><stop stop-opacity="1" stop-color="rgb(77.822876%, 12.939453%, 57.649231%)" offset="0.148438"/><stop stop-opacity="1" stop-color="rgb(77.636719%, 12.939453%, 57.649231%)" offset="0.152344"/><stop stop-opacity="1" stop-color="rgb(77.429199%, 12.939453%, 57.649231%)" offset="0.15625"/><stop stop-opacity="1" stop-color="rgb(77.043152%, 12.939453%, 57.649231%)" offset="0.160156"/><stop stop-opacity="1" stop-color="rgb(76.661682%, 12.939453%, 57.649231%)" offset="0.164062"/><stop stop-opacity="1" stop-color="rgb(76.470947%, 12.939453%, 57.649231%)" offset="0.167969"/><stop stop-opacity="1" stop-color="rgb(76.28479%, 12.939453%, 57.649231%)" offset="0.171875"/><stop stop-opacity="1" stop-color="rgb(75.909424%, 13.117981%, 57.649231%)" offset="0.175781"/><stop stop-opacity="1" stop-color="rgb(75.704956%, 13.313293%, 57.649231%)" offset="0.179688"/><stop stop-opacity="1" stop-color="rgb(75.514221%, 13.328552%, 57.649231%)" offset="0.183594"/><stop stop-opacity="1" stop-color="rgb(75.119019%, 13.328552%, 57.649231%)" offset="0.1875"/><stop stop-opacity="1" stop-color="rgb(74.884033%, 13.328552%, 57.649231%)" offset="0.191406"/><stop stop-opacity="1" stop-color="rgb(74.67804%, 13.328552%, 57.649231%)" offset="0.195312"/><stop stop-opacity="1" stop-color="rgb(74.29657%, 13.328552%, 57.649231%)" offset="0.199219"/><stop stop-opacity="1" stop-color="rgb(73.918152%, 13.328552%, 57.649231%)" offset="0.203125"/><stop stop-opacity="1" stop-color="rgb(73.728943%, 13.328552%, 57.649231%)" offset="0.207031"/><stop stop-opacity="1" stop-color="rgb(73.536682%, 13.328552%, 57.649231%)" offset="0.210938"/><stop stop-opacity="1" stop-color="rgb(73.153687%, 13.328552%, 57.649231%)" offset="0.214844"/><stop stop-opacity="1" stop-color="rgb(72.950745%, 13.328552%, 57.649231%)" offset="0.21875"/><stop stop-opacity="1" stop-color="rgb(72.764587%, 13.328552%, 57.649231%)" offset="0.222656"/><stop stop-opacity="1" stop-color="rgb(72.3526%, 13.528442%, 57.649231%)" offset="0.226562"/><stop stop-opacity="1" stop-color="rgb(71.936035%, 13.729858%, 57.649231%)" offset="0.230469"/><stop stop-opacity="1" stop-color="rgb(71.7453%, 13.729858%, 57.649231%)" offset="0.234375"/><stop stop-opacity="1" stop-color="rgb(71.540833%, 13.729858%, 57.649231%)" offset="0.238281"/><stop stop-opacity="1" stop-color="rgb(71.165466%, 13.729858%, 57.649231%)" offset="0.242188"/><stop stop-opacity="1" stop-color="rgb(70.979309%, 13.729858%, 57.649231%)" offset="0.246094"/><stop stop-opacity="1" stop-color="rgb(70.788574%, 13.729858%, 57.649231%)" offset="0.25"/><stop stop-opacity="1" stop-color="rgb(70.407104%, 13.729858%, 57.649231%)" offset="0.253906"/><stop stop-opacity="1" stop-color="rgb(70.027161%, 13.729858%, 57.649231%)" offset="0.257812"/><stop stop-opacity="1" stop-color="rgb(69.645691%, 13.729858%, 57.649231%)" offset="0.265625"/><stop stop-opacity="1" stop-color="rgb(69.236755%, 13.729858%, 57.649231%)" offset="0.269531"/><stop stop-opacity="1" stop-color="rgb(69.00177%, 13.746643%, 57.649231%)" offset="0.273438"/><stop stop-opacity="1" stop-color="rgb(68.79425%, 13.94043%, 57.649231%)" offset="0.277344"/><stop stop-opacity="1" stop-color="rgb(68.418884%, 14.118958%, 57.649231%)" offset="0.28125"/><stop stop-opacity="1" stop-color="rgb(68.037415%, 14.118958%, 57.649231%)" offset="0.289062"/><stop stop-opacity="1" stop-color="rgb(67.651367%, 14.118958%, 57.649231%)" offset="0.292969"/><stop stop-opacity="1" stop-color="rgb(67.271423%, 14.118958%, 57.649231%)" offset="0.296875"/><stop stop-opacity="1" stop-color="rgb(66.894531%, 14.118958%, 57.649231%)" offset="0.300781"/><stop stop-opacity="1" stop-color="rgb(66.513062%, 14.118958%, 57.649231%)" offset="0.308594"/><stop stop-opacity="1" stop-color="rgb(66.273499%, 14.118958%, 57.649231%)" offset="0.3125"/><stop stop-opacity="1" stop-color="rgb(66.038513%, 14.134216%, 57.649231%)" offset="0.316406"/><stop stop-opacity="1" stop-color="rgb(65.658569%, 14.329529%, 57.649231%)" offset="0.320312"/><stop stop-opacity="1" stop-color="rgb(65.281677%, 14.509583%, 57.649231%)" offset="0.324219"/><stop stop-opacity="1" stop-color="rgb(64.904785%, 14.509583%, 57.649231%)" offset="0.332031"/><stop stop-opacity="1" stop-color="rgb(64.520264%, 14.509583%, 57.649231%)" offset="0.335938"/><stop stop-opacity="1" stop-color="rgb(64.138794%, 14.509583%, 57.649231%)" offset="0.339844"/><stop stop-opacity="1" stop-color="rgb(63.761902%, 14.509583%, 57.649231%)" offset="0.347656"/><stop stop-opacity="1" stop-color="rgb(63.526917%, 14.509583%, 57.449341%)" offset="0.351562"/><stop stop-opacity="1" stop-color="rgb(63.293457%, 14.509583%, 57.249451%)" offset="0.355469"/><stop stop-opacity="1" stop-color="rgb(62.911987%, 14.509583%, 57.249451%)" offset="0.359375"/><stop stop-opacity="1" stop-color="rgb(62.530518%, 14.703369%, 57.249451%)" offset="0.363281"/><stop stop-opacity="1" stop-color="rgb(62.149048%, 14.898682%, 57.249451%)" offset="0.371094"/><stop stop-opacity="1" stop-color="rgb(61.764526%, 14.898682%, 57.249451%)" offset="0.375"/><stop stop-opacity="1" stop-color="rgb(61.387634%, 14.898682%, 57.249451%)" offset="0.382812"/><stop stop-opacity="1" stop-color="rgb(61.010742%, 14.898682%, 57.249451%)" offset="0.386719"/><stop stop-opacity="1" stop-color="rgb(60.626221%, 14.898682%, 57.249451%)" offset="0.390625"/><stop stop-opacity="1" stop-color="rgb(60.391235%, 14.898682%, 57.249451%)" offset="0.394531"/><stop stop-opacity="1" stop-color="rgb(60.15625%, 14.898682%, 57.249451%)" offset="0.398438"/><stop stop-opacity="1" stop-color="rgb(59.779358%, 14.906311%, 57.249451%)" offset="0.402344"/><stop stop-opacity="1" stop-color="rgb(59.403992%, 15.101624%, 57.249451%)" offset="0.410156"/><stop stop-opacity="1" stop-color="rgb(59.017944%, 15.289307%, 57.249451%)" offset="0.414062"/><stop stop-opacity="1" stop-color="rgb(58.631897%, 15.289307%, 57.249451%)" offset="0.417969"/><stop stop-opacity="1" stop-color="rgb(58.255005%, 15.289307%, 57.249451%)" offset="0.421875"/><stop stop-opacity="1" stop-color="rgb(57.879639%, 15.289307%, 57.249451%)" offset="0.429688"/><stop stop-opacity="1" stop-color="rgb(57.669067%, 15.289307%, 57.249451%)" offset="0.433594"/><stop stop-opacity="1" stop-color="rgb(57.429504%, 15.289307%, 57.249451%)" offset="0.4375"/><stop stop-opacity="1" stop-color="rgb(57.019043%, 15.289307%, 57.249451%)" offset="0.441406"/><stop stop-opacity="1" stop-color="rgb(56.642151%, 15.29541%, 57.249451%)" offset="0.445312"/><stop stop-opacity="1" stop-color="rgb(56.266785%, 15.4953%, 57.249451%)" offset="0.453125"/><stop stop-opacity="1" stop-color="rgb(55.882263%, 15.689087%, 57.249451%)" offset="0.457031"/><stop stop-opacity="1" stop-color="rgb(55.500793%, 15.689087%, 57.249451%)" offset="0.464844"/><stop stop-opacity="1" stop-color="rgb(55.123901%, 15.689087%, 57.249451%)" offset="0.46875"/><stop stop-opacity="1" stop-color="rgb(54.742432%, 15.689087%, 57.249451%)" offset="0.472656"/><stop stop-opacity="1" stop-color="rgb(54.507446%, 15.689087%, 57.249451%)" offset="0.476562"/><stop stop-opacity="1" stop-color="rgb(54.272461%, 15.689087%, 57.249451%)" offset="0.480469"/><stop stop-opacity="1" stop-color="rgb(53.897095%, 15.698242%, 57.249451%)" offset="0.484375"/><stop stop-opacity="1" stop-color="rgb(53.515625%, 15.893555%, 57.249451%)" offset="0.492188"/><stop stop-opacity="1" stop-color="rgb(53.129578%, 16.079712%, 57.249451%)" offset="0.496094"/><stop stop-opacity="1" stop-color="rgb(52.752686%, 16.079712%, 57.249451%)" offset="0.503906"/><stop stop-opacity="1" stop-color="rgb(52.377319%, 16.079712%, 57.249451%)" offset="0.507812"/><stop stop-opacity="1" stop-color="rgb(51.991272%, 16.079712%, 57.249451%)" offset="0.511719"/><stop stop-opacity="1" stop-color="rgb(51.777649%, 16.079712%, 57.249451%)" offset="0.515625"/><stop stop-opacity="1" stop-color="rgb(51.542664%, 16.079712%, 57.249451%)" offset="0.519531"/><stop stop-opacity="1" stop-color="rgb(51.152039%, 16.079712%, 57.249451%)" offset="0.523438"/><stop stop-opacity="1" stop-color="rgb(50.967407%, 16.091919%, 57.249451%)" offset="0.527344"/><stop stop-opacity="1" stop-color="rgb(50.764465%, 16.285706%, 57.249451%)" offset="0.53125"/><stop stop-opacity="1" stop-color="rgb(50.382996%, 16.468811%, 57.249451%)" offset="0.535156"/><stop stop-opacity="1" stop-color="rgb(49.996948%, 16.468811%, 57.249451%)" offset="0.539062"/><stop stop-opacity="1" stop-color="rgb(49.80011%, 16.468811%, 57.249451%)" offset="0.542969"/><stop stop-opacity="1" stop-color="rgb(49.613953%, 16.468811%, 57.249451%)" offset="0.546875"/><stop stop-opacity="1" stop-color="rgb(49.240112%, 16.468811%, 57.249451%)" offset="0.550781"/><stop stop-opacity="1" stop-color="rgb(49.034119%, 16.468811%, 57.249451%)" offset="0.554688"/><stop stop-opacity="1" stop-color="rgb(48.847961%, 16.468811%, 57.249451%)" offset="0.558594"/><stop stop-opacity="1" stop-color="rgb(48.4375%, 16.468811%, 57.249451%)" offset="0.5625"/><stop stop-opacity="1" stop-color="rgb(48.017883%, 16.48407%, 57.249451%)" offset="0.566406"/><stop stop-opacity="1" stop-color="rgb(47.828674%, 16.679382%, 57.249451%)" offset="0.570312"/><stop stop-opacity="1" stop-color="rgb(47.627258%, 16.859436%, 57.249451%)" offset="0.574219"/><stop stop-opacity="1" stop-color="rgb(47.247314%, 16.859436%, 57.249451%)" offset="0.578125"/><stop stop-opacity="1" stop-color="rgb(47.059631%, 16.859436%, 57.249451%)" offset="0.582031"/><stop stop-opacity="1" stop-color="rgb(46.871948%, 16.859436%, 57.249451%)" offset="0.585938"/><stop stop-opacity="1" stop-color="rgb(46.488953%, 16.859436%, 57.249451%)" offset="0.589844"/><stop stop-opacity="1" stop-color="rgb(46.102905%, 16.859436%, 57.249451%)" offset="0.59375"/><stop stop-opacity="1" stop-color="rgb(45.895386%, 16.859436%, 57.249451%)" offset="0.597656"/><stop stop-opacity="1" stop-color="rgb(45.6604%, 16.859436%, 57.249451%)" offset="0.601562"/><stop stop-opacity="1" stop-color="rgb(45.271301%, 16.877747%, 57.249451%)" offset="0.605469"/><stop stop-opacity="1" stop-color="rgb(45.085144%, 17.071533%, 57.249451%)" offset="0.609375"/><stop stop-opacity="1" stop-color="rgb(44.880676%, 17.248535%, 57.249451%)" offset="0.613281"/><stop stop-opacity="1" stop-color="rgb(44.494629%, 17.248535%, 57.249451%)" offset="0.617188"/><stop stop-opacity="1" stop-color="rgb(44.110107%, 17.248535%, 57.249451%)" offset="0.621094"/><stop stop-opacity="1" stop-color="rgb(43.919373%, 17.248535%, 57.249451%)" offset="0.625"/><stop stop-opacity="1" stop-color="rgb(43.733215%, 17.248535%, 57.249451%)" offset="0.628906"/><stop stop-opacity="1" stop-color="rgb(43.356323%, 17.248535%, 57.249451%)" offset="0.632812"/><stop stop-opacity="1" stop-color="rgb(42.980957%, 17.248535%, 57.249451%)" offset="0.636719"/><stop stop-opacity="1" stop-color="rgb(42.550659%, 17.448425%, 57.249451%)" offset="0.644531"/><stop stop-opacity="1" stop-color="rgb(42.120361%, 17.649841%, 57.249451%)" offset="0.648438"/><stop stop-opacity="1" stop-color="rgb(41.743469%, 17.649841%, 57.249451%)" offset="0.65625"/><stop stop-opacity="1" stop-color="rgb(41.366577%, 17.649841%, 57.249451%)" offset="0.660156"/><stop stop-opacity="1" stop-color="rgb(40.985107%, 17.649841%, 57.249451%)" offset="0.667969"/><stop stop-opacity="1" stop-color="rgb(40.600586%, 17.649841%, 57.249451%)" offset="0.671875"/><stop stop-opacity="1" stop-color="rgb(40.219116%, 17.649841%, 57.249451%)" offset="0.675781"/><stop stop-opacity="1" stop-color="rgb(39.84375%, 17.843628%, 57.249451%)" offset="0.679688"/><stop stop-opacity="1" stop-color="rgb(39.437866%, 18.03894%, 57.249451%)" offset="0.6875"/><stop stop-opacity="1" stop-color="rgb(39.202881%, 18.03894%, 57.249451%)" offset="0.691406"/><stop stop-opacity="1" stop-color="rgb(38.99231%, 18.03894%, 57.249451%)" offset="0.695312"/><stop stop-opacity="1" stop-color="rgb(38.607788%, 18.03894%, 57.249451%)" offset="0.699219"/><stop stop-opacity="1" stop-color="rgb(38.227844%, 18.03894%, 57.249451%)" offset="0.703125"/><stop stop-opacity="1" stop-color="rgb(37.850952%, 18.03894%, 57.249451%)" offset="0.710938"/><stop stop-opacity="1" stop-color="rgb(37.469482%, 18.222046%, 57.249451%)" offset="0.714844"/><stop stop-opacity="1" stop-color="rgb(37.088013%, 18.417358%, 57.249451%)" offset="0.71875"/><stop stop-opacity="1" stop-color="rgb(36.662292%, 18.429565%, 57.249451%)" offset="0.726562"/><stop stop-opacity="1" stop-color="rgb(36.238098%, 18.429565%, 57.249451%)" offset="0.730469"/><stop stop-opacity="1" stop-color="rgb(35.861206%, 18.429565%, 57.249451%)" offset="0.738281"/><stop stop-opacity="1" stop-color="rgb(35.479736%, 18.429565%, 57.249451%)" offset="0.742188"/><stop stop-opacity="1" stop-color="rgb(35.098267%, 18.618774%, 57.249451%)" offset="0.75"/><stop stop-opacity="1" stop-color="rgb(34.718323%, 18.814087%, 57.249451%)" offset="0.753906"/><stop stop-opacity="1" stop-color="rgb(34.336853%, 18.818665%, 57.249451%)" offset="0.757812"/><stop stop-opacity="1" stop-color="rgb(34.132385%, 18.818665%, 57.249451%)" offset="0.761719"/><stop stop-opacity="1" stop-color="rgb(33.946228%, 18.818665%, 57.249451%)" offset="0.765625"/><stop stop-opacity="1" stop-color="rgb(33.552551%, 18.818665%, 57.249451%)" offset="0.769531"/><stop stop-opacity="1" stop-color="rgb(33.312988%, 18.818665%, 57.249451%)" offset="0.773438"/><stop stop-opacity="1" stop-color="rgb(33.105469%, 18.830872%, 57.249451%)" offset="0.777344"/><stop stop-opacity="1" stop-color="rgb(32.723999%, 19.032288%, 57.249451%)" offset="0.78125"/><stop stop-opacity="1" stop-color="rgb(32.345581%, 19.219971%, 57.249451%)" offset="0.785156"/><stop stop-opacity="1" stop-color="rgb(32.159424%, 19.219971%, 57.249451%)" offset="0.789062"/><stop stop-opacity="1" stop-color="rgb(31.965637%, 19.219971%, 57.249451%)" offset="0.792969"/><stop stop-opacity="1" stop-color="rgb(31.581116%, 19.219971%, 57.249451%)" offset="0.796875"/><stop stop-opacity="1" stop-color="rgb(31.3797%, 19.219971%, 57.249451%)" offset="0.800781"/><stop stop-opacity="1" stop-color="rgb(31.193542%, 19.219971%, 57.249451%)" offset="0.804688"/><stop stop-opacity="1" stop-color="rgb(30.828857%, 19.219971%, 57.249451%)" offset="0.808594"/><stop stop-opacity="1" stop-color="rgb(30.418396%, 19.238281%, 57.249451%)" offset="0.8125"/><stop stop-opacity="1" stop-color="rgb(30.183411%, 19.433594%, 57.249451%)" offset="0.816406"/><stop stop-opacity="1" stop-color="rgb(29.972839%, 19.60907%, 57.249451%)" offset="0.820312"/><stop stop-opacity="1" stop-color="rgb(29.59137%, 19.60907%, 57.249451%)" offset="0.824219"/><stop stop-opacity="1" stop-color="rgb(29.216003%, 19.60907%, 57.249451%)" offset="0.832031"/><stop stop-opacity="1" stop-color="rgb(28.834534%, 19.60907%, 57.249451%)" offset="0.835938"/><stop stop-opacity="1" stop-color="rgb(28.453064%, 19.60907%, 57.249451%)" offset="0.839844"/><stop stop-opacity="1" stop-color="rgb(28.07312%, 19.78302%, 57.249451%)" offset="0.84375"/><stop stop-opacity="1" stop-color="rgb(27.66571%, 19.978333%, 57.249451%)" offset="0.851562"/><stop stop-opacity="1" stop-color="rgb(27.430725%, 19.999695%, 57.249451%)" offset="0.855469"/><stop stop-opacity="1" stop-color="rgb(27.22168%, 19.999695%, 57.249451%)" offset="0.859375"/><stop stop-opacity="1" stop-color="rgb(26.841736%, 19.999695%, 57.249451%)" offset="0.863281"/><stop stop-opacity="1" stop-color="rgb(26.460266%, 19.999695%, 57.249451%)" offset="0.867188"/><stop stop-opacity="1" stop-color="rgb(26.078796%, 19.999695%, 57.249451%)" offset="0.875"/><stop stop-opacity="1" stop-color="rgb(25.697327%, 20.184326%, 57.249451%)" offset="0.878906"/><stop stop-opacity="1" stop-color="rgb(25.498962%, 20.379639%, 57.249451%)" offset="0.882812"/><stop stop-opacity="1" stop-color="rgb(25.312805%, 20.388794%, 57.249451%)" offset="0.886719"/><stop stop-opacity="1" stop-color="rgb(24.945068%, 20.388794%, 57.249451%)" offset="0.890625"/><stop stop-opacity="1" stop-color="rgb(24.531555%, 20.388794%, 57.249451%)" offset="0.894531"/><stop stop-opacity="1" stop-color="rgb(24.291992%, 20.388794%, 57.249451%)" offset="0.898438"/><stop stop-opacity="1" stop-color="rgb(24.084473%, 20.388794%, 57.249451%)" offset="0.902344"/><stop stop-opacity="1" stop-color="rgb(23.712158%, 20.396423%, 57.249451%)" offset="0.90625"/><stop stop-opacity="1" stop-color="rgb(23.335266%, 20.591736%, 57.249451%)" offset="0.910156"/><stop stop-opacity="1" stop-color="rgb(22.952271%, 20.779419%, 57.249451%)" offset="0.917969"/><stop stop-opacity="1" stop-color="rgb(22.566223%, 20.779419%, 57.249451%)" offset="0.921875"/><stop stop-opacity="1" stop-color="rgb(22.184753%, 20.779419%, 57.249451%)" offset="0.925781"/><stop stop-opacity="1" stop-color="rgb(21.807861%, 20.779419%, 57.249451%)" offset="0.933594"/><stop stop-opacity="1" stop-color="rgb(21.398926%, 20.979309%, 57.249451%)" offset="0.9375"/><stop stop-opacity="1" stop-color="rgb(21.16394%, 21.179199%, 57.249451%)" offset="0.941406"/><stop stop-opacity="1" stop-color="rgb(20.953369%, 21.179199%, 57.249451%)" offset="0.945312"/><stop stop-opacity="1" stop-color="rgb(20.573425%, 21.179199%, 57.249451%)" offset="0.949219"/><stop stop-opacity="1" stop-color="rgb(20.387268%, 21.179199%, 57.249451%)" offset="0.953125"/><stop stop-opacity="1" stop-color="rgb(20.195007%, 21.179199%, 57.249451%)" offset="0.957031"/><stop stop-opacity="1" stop-color="rgb(19.815063%, 21.179199%, 57.249451%)" offset="0.960938"/><stop stop-opacity="1" stop-color="rgb(19.433594%, 21.179199%, 57.249451%)" offset="0.964844"/><stop stop-opacity="1" stop-color="rgb(19.052124%, 21.374512%, 57.249451%)" offset="0.96875"/><stop stop-opacity="1" stop-color="rgb(18.64624%, 21.569824%, 57.249451%)" offset="0.976562"/><stop stop-opacity="1" stop-color="rgb(18.411255%, 21.569824%, 57.249451%)" offset="0.980469"/><stop stop-opacity="1" stop-color="rgb(18.202209%, 21.569824%, 57.249451%)" offset="0.984375"/><stop stop-opacity="1" stop-color="rgb(17.82074%, 21.569824%, 57.249451%)" offset="0.988281"/><stop stop-opacity="1" stop-color="rgb(17.43927%, 21.569824%, 57.249451%)" offset="0.992188"/><stop stop-opacity="1" stop-color="rgb(17.248535%, 21.569824%, 57.249451%)" offset="1"/></radialGradient><clipPath id="b32796a28b"><path d="M 47.539062 31.636719 L 77.320312 31.636719 L 77.320312 67.941406 L 47.539062 67.941406 Z M 47.539062 31.636719 " clip-rule="nonzero"/></clipPath><clipPath id="a393035b76"><path d="M 64.617188 49.882812 C 63.289062 50.386719 62.050781 51.207031 61.03125 52.332031 C 57.570312 56.152344 57.863281 62.054688 61.683594 65.515625 C 65.503906 68.972656 71.40625 68.679688 74.867188 64.863281 C 78.328125 61.042969 78.035156 55.140625 74.214844 51.679688 C 71.929688 49.609375 68.894531 48.886719 66.085938 49.457031 C 64.058594 46.277344 61.234375 43.34375 58.835938 41.144531 C 60.445312 38.664062 60.066406 35.3125 57.804688 33.261719 C 55.292969 30.988281 51.410156 31.179688 49.136719 33.691406 C 46.859375 36.203125 47.050781 40.082031 49.5625 42.359375 C 51.953125 44.523438 55.578125 44.453125 57.886719 42.28125 C 60.117188 44.332031 62.710938 47.019531 64.617188 49.882812 Z M 64.617188 49.882812 " clip-rule="nonzero"/></clipPath><clipPath id="8b45a922e0"><path d="M 64.617188 49.882812 C 63.289062 50.386719 62.050781 51.207031 61.03125 52.332031 C 57.570312 56.152344 57.863281 62.054688 61.683594 65.515625 C 65.503906 68.972656 71.40625 68.679688 74.867188 64.863281 C 78.328125 61.042969 78.035156 55.140625 74.214844 51.679688 C 71.929688 49.609375 68.894531 48.886719 66.085938 49.457031 C 64.058594 46.277344 61.234375 43.34375 58.835938 41.144531 C 60.445312 38.664062 60.066406 35.3125 57.804688 33.261719 C 55.292969 30.988281 51.410156 31.179688 49.136719 33.691406 C 46.859375 36.203125 47.050781 40.082031 49.5625 42.359375 C 51.953125 44.523438 55.578125 44.453125 57.886719 42.28125 C 60.117188 44.332031 62.710938 47.019531 64.617188 49.882812 " clip-rule="nonzero"/></clipPath><clipPath id="aed16ed486"><path d="M 46.871094 30.421875 L 46.175781 68.960938 L 78.316406 69.539062 L 79.011719 31 Z M 46.871094 30.421875 " clip-rule="nonzero"/></clipPath><clipPath id="3fa442b2cd"><path d="M 30.136719 46.777344 L 56.523438 46.777344 L 56.523438 85.003906 L 30.136719 85.003906 Z M 30.136719 46.777344 " clip-rule="nonzero"/></clipPath><clipPath id="2a562a3db5"><path d="M 45.382812 68.429688 C 44.28125 67.53125 42.953125 66.871094 41.46875 66.550781 C 36.429688 65.464844 31.460938 68.667969 30.375 73.707031 C 29.289062 78.746094 32.492188 83.707031 37.53125 84.796875 C 42.570312 85.882812 47.539062 82.675781 48.625 77.640625 C 49.273438 74.625 48.386719 71.636719 46.488281 69.488281 C 48.226562 66.144531 49.359375 62.234375 50.066406 59.058594 C 53.015625 59.210938 55.730469 57.207031 56.375 54.222656 C 57.089844 50.910156 54.980469 47.644531 51.667969 46.929688 C 48.355469 46.21875 45.089844 48.324219 44.375 51.636719 C 43.695312 54.785156 45.570312 57.890625 48.605469 58.804688 C 47.941406 61.757812 46.910156 65.347656 45.382812 68.429688 Z M 45.382812 68.429688 " clip-rule="nonzero"/></clipPath><clipPath id="d6590dc6ea"><path d="M 45.382812 68.429688 C 44.28125 67.53125 42.953125 66.871094 41.46875 66.550781 C 36.429688 65.464844 31.460938 68.667969 30.375 73.707031 C 29.289062 78.746094 32.492188 83.707031 37.53125 84.796875 C 42.570312 85.882812 47.539062 82.675781 48.625 77.640625 C 49.273438 74.625 48.386719 71.636719 46.488281 69.488281 C 48.226562 66.144531 49.359375 62.234375 50.066406 59.058594 C 53.015625 59.210938 55.730469 57.207031 56.375 54.222656 C 57.089844 50.910156 54.980469 47.644531 51.667969 46.929688 C 48.355469 46.21875 45.089844 48.324219 44.375 51.636719 C 43.695312 54.785156 45.570312 57.890625 48.605469 58.804688 C 47.941406 61.757812 46.910156 65.347656 45.382812 68.429688 " clip-rule="nonzero"/></clipPath><clipPath id="5a5a19157c"><path d="M 29.296875 45.71875 L 28.574219 85.867188 L 57.078125 86.382812 L 57.804688 46.230469 Z M 29.296875 45.71875 " clip-rule="nonzero"/></clipPath><clipPath id="6f6e669472"><path d="M 1.109375 50.230469 L 41.824219 50.230469 L 41.824219 68.949219 L 1.109375 68.949219 Z M 1.109375 50.230469 " clip-rule="nonzero"/></clipPath><clipPath id="a444fe5212"><path d="M 19.699219 61.054688 C 19.925781 59.648438 19.835938 58.171875 19.367188 56.722656 C 17.789062 51.816406 12.53125 49.121094 7.625 50.699219 C 2.71875 52.277344 0.0195312 57.53125 1.597656 62.4375 C 3.175781 67.34375 8.433594 70.042969 13.339844 68.464844 C 16.28125 67.519531 18.425781 65.253906 19.335938 62.539062 C 23.101562 62.371094 27.054688 61.394531 30.160156 60.417969 C 31.503906 63.050781 34.597656 64.398438 37.5 63.464844 C 40.730469 62.425781 42.503906 58.96875 41.464844 55.742188 C 40.425781 52.519531 36.96875 50.746094 33.742188 51.78125 C 30.675781 52.769531 28.921875 55.945312 29.648438 59.027344 C 26.757812 59.929688 23.132812 60.835938 19.699219 61.054688 Z M 19.699219 61.054688 " clip-rule="nonzero"/></clipPath><clipPath id="150598c279"><path d="M 19.699219 61.054688 C 19.925781 59.648438 19.835938 58.171875 19.367188 56.722656 C 17.789062 51.816406 12.53125 49.121094 7.625 50.699219 C 2.71875 52.277344 0.0195312 57.53125 1.597656 62.4375 C 3.175781 67.34375 8.433594 70.042969 13.339844 68.464844 C 16.28125 67.519531 18.425781 65.253906 19.335938 62.539062 C 23.101562 62.371094 27.054688 61.394531 30.160156 60.417969 C 31.503906 63.050781 34.597656 64.398438 37.5 63.464844 C 40.730469 62.425781 42.503906 58.96875 41.464844 55.742188 C 40.425781 52.519531 36.96875 50.746094 33.742188 51.78125 C 30.675781 52.769531 28.921875 55.945312 29.648438 59.027344 C 26.757812 59.929688 23.132812 60.835938 19.699219 61.054688 " clip-rule="nonzero"/></clipPath><clipPath id="e6869bc3ef"><path d="M 0.03125 48.355469 L -0.359375 70.035156 L 42.488281 70.808594 L 42.878906 49.125 Z M 0.03125 48.355469 " clip-rule="nonzero"/></clipPath><clipPath id="f7853b37fd"><path d="M 0.542969 17.066406 L 30.324219 17.066406 L 30.324219 53.371094 L 0.542969 53.371094 Z M 0.542969 17.066406 " clip-rule="nonzero"/></clipPath><clipPath id="a3f73accc6"><path d="M 13.246094 35.128906 C 14.578125 34.621094 15.8125 33.800781 16.832031 32.675781 C 20.292969 28.855469 20.003906 22.957031 16.179688 19.496094 C 12.359375 16.035156 6.457031 16.328125 2.996094 20.148438 C -0.464844 23.96875 -0.171875 29.867188 3.648438 33.328125 C 5.9375 35.398438 8.96875 36.125 11.78125 35.554688 C 13.808594 38.730469 16.628906 41.664062 19.027344 43.867188 C 17.417969 46.347656 17.796875 49.695312 20.0625 51.746094 C 22.574219 54.019531 26.453125 53.828125 28.730469 51.316406 C 31.003906 48.804688 30.8125 44.925781 28.300781 42.648438 C 25.910156 40.488281 22.285156 40.554688 19.976562 42.730469 C 17.75 40.675781 15.152344 37.988281 13.246094 35.128906 Z M 13.246094 35.128906 " clip-rule="nonzero"/></clipPath><clipPath id="f3ed1266f5"><path d="M 13.246094 35.128906 C 14.578125 34.621094 15.8125 33.800781 16.832031 32.675781 C 20.292969 28.855469 20.003906 22.957031 16.179688 19.496094 C 12.359375 16.035156 6.457031 16.328125 2.996094 20.148438 C -0.464844 23.96875 -0.171875 29.867188 3.648438 33.328125 C 5.9375 35.398438 8.96875 36.125 11.78125 35.554688 C 13.808594 38.730469 16.628906 41.664062 19.027344 43.867188 C 17.417969 46.347656 17.796875 49.695312 20.0625 51.746094 C 22.574219 54.019531 26.453125 53.828125 28.730469 51.316406 C 31.003906 48.804688 30.8125 44.925781 28.300781 42.648438 C 25.910156 40.488281 22.285156 40.554688 19.976562 42.730469 C 17.75 40.675781 15.152344 37.988281 13.246094 35.128906 " clip-rule="nonzero"/></clipPath><clipPath id="8d8fd49731"><path d="M -0.453125 15.46875 L -1.148438 54.007812 L 30.996094 54.585938 L 31.6875 16.046875 Z M -0.453125 15.46875 " clip-rule="nonzero"/></clipPath><clipPath id="b49bc59dea"><path d="M 21.339844 0 L 47.730469 0 L 47.730469 38.234375 L 21.339844 38.234375 Z M 21.339844 0 " clip-rule="nonzero"/></clipPath><clipPath id="cf35c956e3"><path d="M 32.480469 16.578125 C 33.585938 17.476562 34.910156 18.136719 36.398438 18.457031 C 41.4375 19.542969 46.402344 16.339844 47.488281 11.300781 C 48.574219 6.265625 45.371094 1.300781 40.332031 0.214844 C 35.292969 -0.871094 30.328125 2.332031 29.242188 7.367188 C 28.589844 10.386719 29.480469 13.375 31.378906 15.519531 C 29.636719 18.867188 28.507812 22.777344 27.800781 25.953125 C 24.847656 25.800781 22.132812 27.804688 21.492188 30.785156 C 20.777344 34.097656 22.882812 37.363281 26.195312 38.078125 C 29.511719 38.792969 32.777344 36.683594 33.492188 33.375 C 34.167969 30.222656 32.296875 27.117188 29.261719 26.207031 C 29.925781 23.25 30.953125 19.660156 32.480469 16.578125 Z M 32.480469 16.578125 " clip-rule="nonzero"/></clipPath><clipPath id="2330bec6c3"><path d="M 32.480469 16.578125 C 33.585938 17.476562 34.910156 18.136719 36.398438 18.457031 C 41.4375 19.542969 46.402344 16.339844 47.488281 11.300781 C 48.574219 6.265625 45.371094 1.300781 40.332031 0.214844 C 35.292969 -0.871094 30.328125 2.332031 29.242188 7.367188 C 28.589844 10.386719 29.480469 13.375 31.378906 15.519531 C 29.636719 18.867188 28.507812 22.777344 27.800781 25.953125 C 24.847656 25.800781 22.132812 27.804688 21.492188 30.785156 C 20.777344 34.097656 22.882812 37.363281 26.195312 38.078125 C 29.511719 38.792969 32.777344 36.6875 33.492188 33.371094 C 34.167969 30.222656 32.296875 27.117188 29.261719 26.207031 C 29.925781 23.25 30.953125 19.660156 32.480469 16.578125 " clip-rule="nonzero"/></clipPath><clipPath id="eb7e1f8b28"><path d="M 20.785156 -1.371094 L 20.0625 38.777344 L 48.566406 39.292969 L 49.289062 -0.859375 Z M 20.785156 -1.371094 " clip-rule="nonzero"/></clipPath><clipPath id="aa5669b12f"><path d="M 53.570312 8.460938 L 59.917969 8.460938 L 59.917969 14.867188 L 53.570312 14.867188 Z M 53.570312 8.460938 " clip-rule="nonzero"/></clipPath><clipPath id="de481a391d"><path d="M 59.910156 11.652344 C 59.910156 13.398438 58.496094 14.808594 56.753906 14.808594 C 55.007812 14.808594 53.59375 13.398438 53.59375 11.652344 C 53.59375 9.910156 55.007812 8.496094 56.753906 8.496094 C 58.496094 8.496094 59.910156 9.910156 59.910156 11.652344 Z M 59.910156 11.652344 " clip-rule="nonzero"/></clipPath><clipPath id="5e500cc1be"><path d="M 59.910156 11.652344 C 59.910156 13.398438 58.496094 14.808594 56.753906 14.808594 C 55.007812 14.808594 53.59375 13.398438 53.59375 11.652344 C 53.59375 9.910156 55.007812 8.496094 56.753906 8.496094 C 58.496094 8.496094 59.910156 9.910156 59.910156 11.652344 " clip-rule="nonzero"/></clipPath><clipPath id="2f1e808840"><path d="M 53.597656 8.382812 L 53.480469 14.808594 L 59.910156 14.925781 L 60.023438 8.496094 Z M 53.597656 8.382812 " clip-rule="nonzero"/></clipPath><clipPath id="a9717363a6"><path d="M 17.949219 8.460938 L 24.292969 8.460938 L 24.292969 14.867188 L 17.949219 14.867188 Z M 17.949219 8.460938 " clip-rule="nonzero"/></clipPath><clipPath id="6f3497533a"><path d="M 24.269531 11.652344 C 24.269531 13.398438 22.855469 14.808594 21.113281 14.808594 C 19.367188 14.808594 17.953125 13.398438 17.953125 11.652344 C 17.953125 9.910156 19.367188 8.496094 21.113281 8.496094 C 22.855469 8.496094 24.269531 9.910156 24.269531 11.652344 Z M 24.269531 11.652344 " clip-rule="nonzero"/></clipPath><clipPath id="6d66e88eb7"><path d="M 24.269531 11.652344 C 24.269531 13.398438 22.855469 14.808594 21.113281 14.808594 C 19.367188 14.808594 17.953125 13.398438 17.953125 11.652344 C 17.953125 9.910156 19.367188 8.496094 21.113281 8.496094 C 22.855469 8.496094 24.269531 9.910156 24.269531 11.652344 " clip-rule="nonzero"/></clipPath><clipPath id="4f7faa6234"><path d="M 17.957031 8.382812 L 17.839844 14.808594 L 24.269531 14.925781 L 24.382812 8.496094 Z M 17.957031 8.382812 " clip-rule="nonzero"/></clipPath><clipPath id="0783b85de1"><path d="M 19.265625 70.140625 L 25.675781 70.140625 L 25.675781 76.546875 L 19.265625 76.546875 Z M 19.265625 70.140625 " clip-rule="nonzero"/></clipPath><clipPath id="3508cf577d"><path d="M 25.625 73.355469 C 25.625 75.097656 24.210938 76.511719 22.464844 76.511719 C 20.722656 76.511719 19.308594 75.097656 19.308594 73.355469 C 19.308594 71.613281 20.722656 70.199219 22.464844 70.199219 C 24.210938 70.199219 25.625 71.613281 25.625 73.355469 Z M 25.625 73.355469 " clip-rule="nonzero"/></clipPath><clipPath id="cf76615b8f"><path d="M 25.625 73.355469 C 25.625 75.097656 24.210938 76.511719 22.464844 76.511719 C 20.722656 76.511719 19.308594 75.097656 19.308594 73.355469 C 19.308594 71.613281 20.722656 70.199219 22.464844 70.199219 C 24.210938 70.199219 25.625 71.613281 25.625 73.355469 " clip-rule="nonzero"/></clipPath><clipPath id="3e4cd300a4"><path d="M 19.308594 70.085938 L 19.191406 76.511719 L 25.621094 76.628906 L 25.738281 70.199219 Z M 19.308594 70.085938 " clip-rule="nonzero"/></clipPath><clipPath id="4a0db37ec0"><path d="M 52.1875 70.140625 L 58.597656 70.140625 L 58.597656 76.546875 L 52.1875 76.546875 Z M 52.1875 70.140625 " clip-rule="nonzero"/></clipPath><clipPath id="8a920bca1b"><path d="M 58.558594 73.355469 C 58.558594 75.097656 57.144531 76.511719 55.398438 76.511719 C 53.65625 76.511719 52.242188 75.097656 52.242188 73.355469 C 52.242188 71.613281 53.65625 70.199219 55.398438 70.199219 C 57.144531 70.199219 58.558594 71.613281 58.558594 73.355469 Z M 58.558594 73.355469 " clip-rule="nonzero"/></clipPath><clipPath id="5ba6a424a4"><path d="M 58.558594 73.355469 C 58.558594 75.097656 57.144531 76.511719 55.398438 76.511719 C 53.65625 76.511719 52.242188 75.097656 52.242188 73.355469 C 52.242188 71.613281 53.65625 70.199219 55.398438 70.199219 C 57.144531 70.199219 58.558594 71.613281 58.558594 73.355469 " clip-rule="nonzero"/></clipPath><clipPath id="6f0976cfd9"><path d="M 52.242188 70.085938 L 52.128906 76.511719 L 58.554688 76.628906 L 58.671875 70.199219 Z M 52.242188 70.085938 " clip-rule="nonzero"/></clipPath><clipPath id="479bf1da37"><path d="M 1.988281 39.300781 L 8.335938 39.300781 L 8.335938 45.707031 L 1.988281 45.707031 Z M 1.988281 39.300781 " clip-rule="nonzero"/></clipPath><clipPath id="fc4bd32354"><path d="M 8.308594 42.503906 C 8.308594 44.25 6.894531 45.660156 5.152344 45.660156 C 3.40625 45.660156 1.992188 44.25 1.992188 42.503906 C 1.992188 40.761719 3.40625 39.347656 5.152344 39.347656 C 6.894531 39.347656 8.308594 40.761719 8.308594 42.503906 Z M 8.308594 42.503906 " clip-rule="nonzero"/></clipPath><clipPath id="73c42f98cf"><path d="M 8.308594 42.503906 C 8.308594 44.25 6.894531 45.660156 5.152344 45.660156 C 3.40625 45.660156 1.992188 44.25 1.992188 42.503906 C 1.992188 40.761719 3.40625 39.347656 5.152344 39.347656 C 6.894531 39.347656 8.308594 40.761719 8.308594 42.503906 " clip-rule="nonzero"/></clipPath><clipPath id="1497fb70c6"><path d="M 1.996094 39.234375 L 1.878906 45.660156 L 8.308594 45.777344 L 8.421875 39.347656 Z M 1.996094 39.234375 " clip-rule="nonzero"/></clipPath><clipPath id="58fca7c1fa"><path d="M 69.53125 39.300781 L 75.875 39.300781 L 75.875 45.707031 L 69.53125 45.707031 Z M 69.53125 39.300781 " clip-rule="nonzero"/></clipPath><clipPath id="1af1ab248a"><path d="M 75.871094 42.503906 C 75.871094 44.25 74.457031 45.660156 72.714844 45.660156 C 70.96875 45.660156 69.554688 44.25 69.554688 42.503906 C 69.554688 40.761719 70.96875 39.347656 72.714844 39.347656 C 74.457031 39.347656 75.871094 40.761719 75.871094 42.503906 Z M 75.871094 42.503906 " clip-rule="nonzero"/></clipPath><clipPath id="0fe1cd538a"><path d="M 75.871094 42.503906 C 75.871094 44.25 74.457031 45.660156 72.714844 45.660156 C 70.96875 45.660156 69.554688 44.25 69.554688 42.503906 C 69.554688 40.761719 70.96875 39.347656 72.714844 39.347656 C 74.457031 39.347656 75.871094 40.761719 75.871094 42.503906 " clip-rule="nonzero"/></clipPath><clipPath id="573f66bdaa"><path d="M 69.558594 39.234375 L 69.441406 45.660156 L 75.871094 45.777344 L 75.984375 39.347656 Z M 69.558594 39.234375 " clip-rule="nonzero"/></clipPath></defs><g clip-path="url(#c073c5fa13)"><g clip-path="url(#ad56633d96)"><g clip-path="url(#c9deaa5e0f)"><g clip-path="url(#b6fc948016)"><path fill="url(#f29958a00e)" d="M 36.054688 15.328125 L 35.707031 34.773438 L 76.742188 35.511719 L 77.09375 16.066406 Z M 36.054688 15.328125 " fill-rule="nonzero"/></g></g></g></g><g clip-path="url(#b32796a28b)"><g clip-path="url(#a393035b76)"><g clip-path="url(#8b45a922e0)"><g clip-path="url(#aed16ed486)"><path fill="url(#f29958a00e)" d="M 47.550781 31.101562 L 46.886719 67.929688 L 77.3125 68.480469 L 77.972656 31.648438 Z M 47.550781 31.101562 " fill-rule="nonzero"/></g></g></g></g><g clip-path="url(#3fa442b2cd)"><g clip-path="url(#2a562a3db5)"><g clip-path="url(#d6590dc6ea)"><g clip-path="url(#5a5a19157c)"><path fill="url(#f29958a00e)" d="M 30.144531 46.300781 L 29.449219 84.992188 L 56.515625 85.476562 L 57.210938 46.789062 Z M 30.144531 46.300781 " fill-rule="nonzero"/></g></g></g></g><g clip-path="url(#6f6e669472)"><g clip-path="url(#a444fe5212)"><g clip-path="url(#150598c279)"><g clip-path="url(#e6869bc3ef)"><path fill="url(#f29958a00e)" d="M 1.121094 49.5 L 0.773438 68.941406 L 41.808594 69.679688 L 42.160156 50.238281 Z M 1.121094 49.5 " fill-rule="nonzero"/></g></g></g></g><g clip-path="url(#f7853b37fd)"><g clip-path="url(#a3f73accc6)"><g clip-path="url(#f3ed1266f5)"><g clip-path="url(#8d8fd49731)"><path fill="url(#f29958a00e)" d="M 0.554688 16.53125 L -0.109375 53.359375 L 30.316406 53.90625 L 30.976562 17.078125 Z M 0.554688 16.53125 " fill-rule="nonzero"/></g></g></g></g><g clip-path="url(#b49bc59dea)"><g clip-path="url(#cf35c956e3)"><g clip-path="url(#2330bec6c3)"><g clip-path="url(#eb7e1f8b28)"><path fill="url(#f29958a00e)" d="M 21.347656 -0.472656 L 20.652344 38.222656 L 47.71875 38.707031 L 48.417969 0.0117188 Z M 21.347656 -0.472656 " fill-rule="nonzero"/></g></g></g></g><g clip-path="url(#aa5669b12f)"><g clip-path="url(#de481a391d)"><g clip-path="url(#5e500cc1be)"><g clip-path="url(#2f1e808840)"><path fill="url(#f29958a00e)" d="M 53.597656 8.382812 L 53.480469 14.808594 L 59.910156 14.925781 L 60.023438 8.496094 Z M 53.597656 8.382812 " fill-rule="nonzero"/></g></g></g></g><g clip-path="url(#a9717363a6)"><g clip-path="url(#6f3497533a)"><g clip-path="url(#6d66e88eb7)"><g clip-path="url(#4f7faa6234)"><path fill="url(#f29958a00e)" d="M 17.957031 8.382812 L 17.839844 14.808594 L 24.265625 14.925781 L 24.382812 8.496094 Z M 17.957031 8.382812 " fill-rule="nonzero"/></g></g></g></g><g clip-path="url(#0783b85de1)"><g clip-path="url(#3508cf577d)"><g clip-path="url(#cf76615b8f)"><g clip-path="url(#3e4cd300a4)"><path fill="url(#f29958a00e)" d="M 19.308594 70.085938 L 19.191406 76.511719 L 25.621094 76.628906 L 25.738281 70.199219 Z M 19.308594 70.085938 " fill-rule="nonzero"/></g></g></g></g><g clip-path="url(#4a0db37ec0)"><g clip-path="url(#8a920bca1b)"><g clip-path="url(#5ba6a424a4)"><g clip-path="url(#6f0976cfd9)"><path fill="url(#f29958a00e)" d="M 52.242188 70.085938 L 52.128906 76.511719 L 58.554688 76.628906 L 58.671875 70.199219 Z M 52.242188 70.085938 " fill-rule="nonzero"/></g></g></g></g><g clip-path="url(#479bf1da37)"><g clip-path="url(#fc4bd32354)"><g clip-path="url(#73c42f98cf)"><g clip-path="url(#1497fb70c6)"><path fill="url(#f29958a00e)" d="M 1.996094 39.234375 L 1.878906 45.660156 L 8.308594 45.777344 L 8.421875 39.347656 Z M 1.996094 39.234375 " fill-rule="nonzero"/></g></g></g></g><g clip-path="url(#58fca7c1fa)"><g clip-path="url(#1af1ab248a)"><g clip-path="url(#0fe1cd538a)"><g clip-path="url(#573f66bdaa)"><path fill="url(#f29958a00e)" d="M 69.558594 39.234375 L 69.441406 45.660156 L 75.871094 45.777344 L 75.984375 39.347656 Z M 69.558594 39.234375 " fill-rule="nonzero"/></g></g></g></g><g fill="#022179" fill-opacity="1"><g transform="translate(99.153638, 53.266302)"><g><path d="M 21.265625 -22.90625 L 21.265625 0 L 16.671875 0 L 16.671875 -9.75 L 6.859375 -9.75 L 6.859375 0 L 2.265625 0 L 2.265625 -22.90625 L 6.859375 -22.90625 L 6.859375 -13.5 L 16.671875 -13.5 L 16.671875 -22.90625 Z M 21.265625 -22.90625 "/></g></g></g><g fill="#022179" fill-opacity="1"><g transform="translate(124.360009, 53.266302)"><g><path d="M 16.3125 -4.359375 L 7.1875 -4.359375 L 5.671875 0 L 0.859375 0 L 9.09375 -22.953125 L 14.4375 -22.953125 L 22.6875 0 L 17.828125 0 Z M 15.0625 -8.046875 L 11.75 -17.625 L 8.4375 -8.046875 Z M 15.0625 -8.046875 "/></g></g></g><g fill="#022179" fill-opacity="1"><g transform="translate(149.533556, 53.266302)"><g><path d="M 21.859375 0 L 17.265625 0 L 6.859375 -15.71875 L 6.859375 0 L 2.265625 0 L 2.265625 -22.953125 L 6.859375 -22.953125 L 17.265625 -7.1875 L 17.265625 -22.953125 L 21.859375 -22.953125 Z M 21.859375 0 "/></g></g></g><g fill="#022179" fill-opacity="1"><g transform="translate(175.330685, 53.266302)"><g><path d="M 18.21875 -16.015625 C 17.695312 -16.984375 16.972656 -17.71875 16.046875 -18.21875 C 15.128906 -18.71875 14.054688 -18.96875 12.828125 -18.96875 C 11.472656 -18.96875 10.269531 -18.660156 9.21875 -18.046875 C 8.175781 -17.441406 7.359375 -16.566406 6.765625 -15.421875 C 6.171875 -14.285156 5.875 -12.972656 5.875 -11.484375 C 5.875 -9.953125 6.175781 -8.617188 6.78125 -7.484375 C 7.382812 -6.347656 8.222656 -5.472656 9.296875 -4.859375 C 10.367188 -4.242188 11.613281 -3.9375 13.03125 -3.9375 C 14.78125 -3.9375 16.210938 -4.398438 17.328125 -5.328125 C 18.441406 -6.265625 19.175781 -7.5625 19.53125 -9.21875 L 11.65625 -9.21875 L 11.65625 -12.734375 L 24.0625 -12.734375 L 24.0625 -8.734375 C 23.757812 -7.128906 23.101562 -5.648438 22.09375 -4.296875 C 21.082031 -2.941406 19.785156 -1.851562 18.203125 -1.03125 C 16.617188 -0.207031 14.84375 0.203125 12.875 0.203125 C 10.65625 0.203125 8.65625 -0.296875 6.875 -1.296875 C 5.09375 -2.296875 3.691406 -3.679688 2.671875 -5.453125 C 1.660156 -7.222656 1.15625 -9.234375 1.15625 -11.484375 C 1.15625 -13.742188 1.660156 -15.765625 2.671875 -17.546875 C 3.691406 -19.328125 5.09375 -20.710938 6.875 -21.703125 C 8.65625 -22.703125 10.640625 -23.203125 12.828125 -23.203125 C 15.410156 -23.203125 17.65625 -22.570312 19.5625 -21.3125 C 21.46875 -20.0625 22.78125 -18.296875 23.5 -16.015625 Z M 18.21875 -16.015625 "/></g></g></g><g fill="#022179" fill-opacity="1"><g transform="translate(202.210865, 53.266302)"><g><path d="M 16.3125 -4.359375 L 7.1875 -4.359375 L 5.671875 0 L 0.859375 0 L 9.09375 -22.953125 L 14.4375 -22.953125 L 22.6875 0 L 17.828125 0 Z M 15.0625 -8.046875 L 11.75 -17.625 L 8.4375 -8.046875 Z M 15.0625 -8.046875 "/></g></g></g><g fill="#022179" fill-opacity="1"><g transform="translate(227.384412, 53.266302)"><g><path d="M 14.078125 0 L 9.03125 -8.921875 L 6.859375 -8.921875 L 6.859375 0 L 2.265625 0 L 2.265625 -22.90625 L 10.859375 -22.90625 C 12.640625 -22.90625 14.148438 -22.59375 15.390625 -21.96875 C 16.640625 -21.351562 17.578125 -20.515625 18.203125 -19.453125 C 18.828125 -18.390625 19.140625 -17.203125 19.140625 -15.890625 C 19.140625 -14.378906 18.703125 -13.015625 17.828125 -11.796875 C 16.953125 -10.585938 15.648438 -9.753906 13.921875 -9.296875 L 19.40625 0 Z M 6.859375 -12.375 L 10.703125 -12.375 C 11.953125 -12.375 12.878906 -12.675781 13.484375 -13.28125 C 14.097656 -13.882812 14.40625 -14.722656 14.40625 -15.796875 C 14.40625 -16.835938 14.097656 -17.648438 13.484375 -18.234375 C 12.878906 -18.816406 11.953125 -19.109375 10.703125 -19.109375 L 6.859375 -19.109375 Z M 6.859375 -12.375 "/></g></g></g><g fill="#022179" fill-opacity="1"><g transform="translate(250.096482, 53.266302)"><g><path d="M 6.859375 -22.90625 L 6.859375 0 L 2.265625 0 L 2.265625 -22.90625 Z M 6.859375 -22.90625 "/></g></g></g><g fill="#022179" fill-opacity="1"><g transform="translate(260.894954, 53.266302)"><g><path d="M 21.859375 0 L 17.265625 0 L 6.859375 -15.71875 L 6.859375 0 L 2.265625 0 L 2.265625 -22.953125 L 6.859375 -22.953125 L 17.265625 -7.1875 L 17.265625 -22.953125 L 21.859375 -22.953125 Z M 21.859375 0 "/></g></g></g></svg>